# xmcd CD database file
#
# Track frame offsets:
#	150
#	17148
#	32675
#	46513
#	59373
#	72833
#	88628
#	99733
#	117898
#
# Disc length: 1767 seconds
#
# Revision: 2
# Processed by: cddbd v1.4PL0 Copyright (c) Steve Scherf et al.
# Submitted via: CDex 1.50
#
DISCID=6c06e509
DTITLE=The Judds - Christmas Time With The Judds
DYEAR=1987
DGENRE=Christmas
TTITLE0=Winter Wonderland
TTITLE1=Beautiful Star Of Bethlehem
TTITLE2=Who Is This Babe
TTITLE3=Santa Claus Is Comin' To Town
TTITLE4=Silver Bells
TTITLE5=What Child Is This
TTITLE6=Away In A Manger
TTITLE7=Oh Holy Night
TTITLE8=Silent Night
EXTD=YEAR: 1987
EXTT0=
EXTT1=
EXTT2=
EXTT3=
EXTT4=
EXTT5=
EXTT6=
EXTT7=
EXTT8=
PLAYORDER=
